<svg data-v-423bf9ae="" xmlns="http://www.w3.org/2000/svg" viewBox="0 0 427 90" class="iconLeft"><!----><!----><!----><g data-v-423bf9ae="" id="9dd711f2-09d7-460a-88d7-05a89dc879b2" fill="black" transform="matrix(5.808325309113267,0,0,5.808325309113267,90.62624386476034,-6.084219629442607)"><path d="M1.26 13.78L7.46 13.78L7.46 12.46L5.28 12.46L5.28 4.54L4.10 4.54C3.49 4.87 2.80 5.12 1.81 5.28L1.81 6.29L3.68 6.29L3.68 12.46L1.26 12.46ZM12.60 13.94C14.63 13.94 15.92 12.22 15.92 9.13C15.92 6.01 14.63 4.37 12.60 4.37C10.58 4.37 9.30 6.01 9.30 9.13C9.30 12.22 10.58 13.94 12.60 13.94ZM10.89 10.78C10.81 10.32 10.75 9.77 10.75 9.13C10.75 6.58 11.54 5.63 12.60 5.63C13.08 5.63 13.50 5.82 13.82 6.26ZM12.60 12.68C12.11 12.68 11.68 12.46 11.35 11.97L14.29 7.42C14.41 7.87 14.46 8.44 14.46 9.13C14.46 11.66 13.66 12.68 12.60 12.68ZM21 13.94C23.03 13.94 24.32 12.22 24.32 9.13C24.32 6.01 23.03 4.37 21 4.37C18.98 4.37 17.70 6.01 17.70 9.13C17.70 12.22 18.98 13.94 21 13.94ZM19.29 10.78C19.21 10.32 19.15 9.77 19.15 9.13C19.15 6.58 19.94 5.63 21 5.63C21.48 5.63 21.90 5.82 22.22 6.26ZM21 12.68C20.51 12.68 20.08 12.46 19.75 11.97L22.69 7.42C22.81 7.87 22.86 8.44 22.86 9.13C22.86 11.66 22.06 12.68 21 12.68ZM28.90 13.96C29.67 13.96 30.42 13.48 30.97 12.92L31.01 12.92L31.14 13.78L32.45 13.78L32.45 3.63L30.84 3.63L30.84 6.09L30.90 7.32C30.34 6.79 29.79 6.45 28.98 6.45C27.43 6.45 25.96 7.88 25.96 10.21C25.96 12.57 27.12 13.96 28.90 13.96ZM29.27 12.63C28.22 12.63 27.61 11.76 27.61 10.19C27.61 8.68 28.41 7.78 29.37 7.78C29.86 7.78 30.35 7.97 30.84 8.46L30.84 11.73C30.37 12.33 29.85 12.63 29.27 12.63ZM38.22 13.96C39.23 13.96 40.18 13.59 40.91 13.12L40.36 12.11C39.75 12.49 39.14 12.70 38.43 12.70C37.18 12.70 36.22 11.96 36.12 10.64L41.12 10.64C41.15 10.46 41.19 10.15 41.19 9.84C41.19 7.87 40.05 6.45 38.01 6.45C36.20 6.45 34.47 7.88 34.47 10.21C34.47 12.56 36.13 13.96 38.22 13.96ZM36.11 9.53C36.29 8.34 37.11 7.70 38.04 7.70C39.13 7.70 39.72 8.39 39.72 9.53ZM45.32 13.78L47.15 13.78L49.83 6.64L48.29 6.64L46.96 10.39C46.70 11.10 46.51 11.83 46.28 12.53L46.23 12.53C46.00 11.83 45.78 11.10 45.53 10.39L44.20 6.64L42.57 6.64ZM54.64 13.96C56.73 13.96 57.86 12.96 57.86 11.75C57.86 10.58 56.83 10.04 55.23 9.60C54.12 9.31 53.30 9.02 53.30 8.50C53.30 8.02 53.68 7.67 54.74 7.67C55.52 7.67 56.22 7.97 56.84 8.39L57.58 7.39C56.88 6.92 55.85 6.45 54.73 6.45C52.79 6.45 51.69 7.35 51.69 8.58C51.69 9.65 52.92 10.28 54.22 10.63C55.62 11.00 56.27 11.34 56.27 11.84C56.27 12.36 55.76 12.73 54.68 12.73C53.62 12.73 52.79 12.38 52.02 11.82L51.28 12.84C52.14 13.44 53.35 13.96 54.64 13.96Z"></path></g><!----><g data-v-423bf9ae="" id="9b3b646d-992a-4623-aac1-edd0b458fe98" transform="matrix(1.0967317867280029,0,0,1.0967317867280029,-9.887934433871983,-3.3839284713020135)" stroke="none" fill="black"><path d="M38.182 57.753L20.18 47.91v-5.455l18.002-9.803v6.422l-12.557 6.039 12.557 6.266zM39.848 62.08l6.503-34.162h3.785L43.56 62.08zM51.8 57.78V51.4l12.572-6.219L51.8 39.028v-6.332L69.82 42.5v5.41z"></path><path d="M44.999 86.031L9.465 65.517V24.484L44.999 3.969l35.536 20.516v41.029L44.999 86.031zM13.07 63.434l31.929 18.434L76.93 63.434V26.566L44.999 8.131 13.07 26.565v36.869z"></path></g><!----></svg>