<?xml version="1.0" encoding="utf-8"?>
<svg viewBox="-132.639 -30.587 190.672 37.665" xmlns="http://www.w3.org/2000/svg">
  <path d="M 36.424 -4.043 C 36.398 -4.038 36.373 -4.039 36.348 -4.036 L 36.478 -4.054 C 36.46 -4.052 36.442 -4.043 36.424 -4.039 L 36.424 -4.043 Z M -50.876 2.087 C -50.865 2.911 -51.197 3.702 -51.792 4.272 C -52.367 4.865 -53.16 5.195 -53.986 5.182 L -60.147 5.182 C -62.615 5.22 -64.991 4.238 -66.711 2.467 C -68.528 0.655 -69.415 -1.524 -69.415 -4.077 L -69.415 -16.487 C -69.415 -17.361 -69.114 -18.095 -68.508 -18.692 C -67.903 -19.288 -67.163 -19.584 -66.291 -19.584 C -65.47 -19.595 -64.681 -19.267 -64.113 -18.673 C -63.507 -18.068 -63.202 -17.339 -63.202 -16.488 L -63.202 -11.994 L -54.455 -11.994 C -53.662 -11.994 -52.98 -11.713 -52.412 -11.15 C -51.844 -10.588 -51.561 -9.913 -51.561 -9.124 C -51.55 -8.359 -51.857 -7.625 -52.409 -7.097 C -52.944 -6.547 -53.68 -6.243 -54.446 -6.253 L -63.202 -6.253 L -63.202 -4.079 C -63.202 -3.226 -62.905 -2.502 -62.306 -1.905 C -61.708 -1.308 -60.983 -1.011 -60.129 -1.011 L -53.999 -1.011 C -53.146 -1.011 -52.412 -0.704 -51.805 -0.098 C -51.21 0.471 -50.878 1.263 -50.889 2.087 L -50.876 2.087 Z M 21.088 2.087 C 21.099 2.911 20.767 3.702 20.174 4.272 C 19.599 4.865 18.807 5.193 17.982 5.182 L 15.191 5.182 C 12.721 5.222 10.347 4.239 8.625 2.467 C 6.851 0.756 5.865 -1.613 5.902 -4.077 L 5.902 -16.487 C 5.902 -17.361 6.203 -18.095 6.809 -18.692 C 7.415 -19.288 8.152 -19.584 9.027 -19.584 C 9.847 -19.595 10.637 -19.267 11.205 -18.673 C 11.796 -18.102 12.126 -17.311 12.113 -16.488 L 12.113 -11.994 L 17.509 -11.994 C 18.277 -12.005 19.015 -11.7 19.55 -11.15 C 20.118 -10.588 20.401 -9.913 20.401 -9.124 C 20.412 -8.359 20.106 -7.625 19.554 -7.097 C 19.018 -6.547 18.283 -6.243 17.517 -6.253 L 12.113 -6.253 L 12.113 -4.079 C 12.113 -3.226 12.411 -2.502 13.009 -1.905 C 13.608 -1.308 14.333 -1.011 15.187 -1.011 L 17.982 -1.011 C 18.835 -1.011 19.568 -0.704 20.176 -0.098 C 20.769 0.473 21.101 1.263 21.09 2.087 L 21.088 2.087 Z M 4.862 2.087 C 4.862 2.934 4.556 3.664 3.948 4.272 C 3.373 4.865 2.58 5.195 1.754 5.182 L -1.037 5.182 C -3.597 5.182 -5.784 4.277 -7.599 2.467 C -9.375 0.758 -10.362 -1.613 -10.325 -4.077 L -10.325 -16.487 C -10.343 -17.316 -10.015 -18.115 -9.419 -18.692 C -8.813 -19.286 -8.074 -19.584 -7.201 -19.584 C -6.381 -19.595 -5.591 -19.267 -5.023 -18.673 C -4.417 -18.068 -4.113 -17.339 -4.113 -16.488 L -4.113 -11.994 L 1.282 -11.994 C 2.075 -11.994 2.756 -11.713 3.324 -11.15 C 3.878 -10.622 4.186 -9.888 4.173 -9.124 C 4.184 -8.359 3.878 -7.625 3.326 -7.097 C 2.762 -6.556 2.064 -6.253 1.292 -6.253 L -4.131 -6.253 L -4.131 -4.079 C -4.131 -3.226 -3.833 -2.502 -3.235 -1.905 C -2.636 -1.308 -1.911 -1.011 -1.057 -1.011 L 1.738 -1.011 C 2.59 -1.011 3.324 -0.704 3.932 -0.098 C 4.525 0.473 4.857 1.263 4.846 2.087 L 4.862 2.087 Z M -20.916 -3.481 C -20.916 -1.092 -21.763 0.947 -23.465 2.642 C -25.073 4.301 -27.294 5.22 -29.604 5.182 C -31.792 5.182 -33.72 4.461 -35.386 2.965 C -36.947 4.413 -39.002 5.206 -41.131 5.181 C -43.441 5.217 -45.662 4.297 -47.272 2.64 C -48.933 1.041 -49.854 -1.176 -49.82 -3.482 L -49.82 -9.531 C -49.838 -10.308 -49.528 -11.056 -48.965 -11.594 C -48.397 -12.134 -47.712 -12.43 -46.915 -12.43 C -46.145 -12.443 -45.406 -12.14 -44.865 -11.594 C -44.296 -11.053 -44.011 -10.332 -44.011 -9.529 L -44.011 -3.477 C -44.025 -2.713 -43.72 -1.979 -43.172 -1.447 C -42.635 -0.902 -41.899 -0.601 -41.135 -0.612 C -40.36 -0.612 -39.693 -0.888 -39.152 -1.447 C -38.604 -1.979 -38.301 -2.713 -38.315 -3.477 L -38.315 -9.499 C -38.315 -10.292 -38.027 -10.981 -37.459 -11.561 C -36.913 -12.129 -36.155 -12.445 -35.368 -12.432 C -34.594 -12.443 -33.851 -12.133 -33.312 -11.579 C -32.741 -11.009 -32.456 -10.328 -32.456 -9.531 L -32.456 -3.479 C -32.517 -1.889 -31.225 -0.576 -29.634 -0.614 C -28.836 -0.614 -28.156 -0.89 -27.597 -1.449 C -27.049 -1.981 -26.744 -2.714 -26.759 -3.479 L -26.759 -9.531 C -26.759 -10.328 -26.474 -11.009 -25.904 -11.579 C -25.369 -12.134 -24.626 -12.443 -23.854 -12.432 C -23.056 -12.432 -22.372 -12.147 -21.803 -11.579 C -21.233 -11.011 -20.95 -10.33 -20.95 -9.533 L -20.95 -3.484 L -20.916 -3.481 Z M -12.523 -17.183 C -12.512 -16.359 -12.842 -15.565 -13.437 -14.996 C -14.012 -14.402 -14.804 -14.074 -15.63 -14.085 C -16.455 -14.074 -17.249 -14.404 -17.824 -14.996 C -18.417 -15.567 -18.747 -16.357 -18.736 -17.181 C -18.736 -18.032 -18.429 -18.76 -17.824 -19.366 C -17.249 -19.959 -16.455 -20.287 -15.63 -20.276 C -14.804 -20.287 -14.011 -19.959 -13.437 -19.366 C -12.828 -18.76 -12.523 -18.032 -12.523 -17.181 L -12.523 -17.183 Z M -12.523 2.067 C -12.514 2.891 -12.844 3.684 -13.437 4.256 C -14.011 4.849 -14.804 5.179 -15.63 5.166 C -16.482 5.166 -17.212 4.863 -17.824 4.256 C -18.417 3.684 -18.747 2.891 -18.736 2.067 L -18.736 -9.345 C -18.736 -10.196 -18.429 -10.926 -17.824 -11.532 C -17.249 -12.125 -16.455 -12.455 -15.63 -12.445 C -14.804 -12.455 -14.011 -12.125 -13.437 -11.532 C -12.828 -10.926 -12.523 -10.198 -12.523 -9.345 L -12.523 2.067 Z M 58.033 -9.142 C 58.033 -8.354 57.75 -7.678 57.182 -7.115 C 56.648 -6.565 55.913 -6.259 55.147 -6.271 L 50.906 -6.271 C 50.113 -6.271 49.44 -5.994 48.887 -5.442 C 48.342 -4.916 48.04 -4.185 48.054 -3.428 L 48.054 2.287 C 48.054 3.077 47.773 3.754 47.207 4.319 C 46.675 4.869 45.939 5.177 45.175 5.166 C 44.387 5.166 43.705 4.885 43.141 4.319 C 42.589 3.789 42.283 3.055 42.294 2.291 L 42.294 -3.425 C 42.259 -5.709 43.174 -7.907 44.818 -9.493 C 46.413 -11.136 48.616 -12.048 50.908 -12.014 L 55.145 -12.014 C 55.911 -12.024 56.648 -11.718 57.182 -11.166 C 57.736 -10.64 58.044 -9.904 58.029 -9.142 L 58.033 -9.142 Z M 30.815 5.164 C 28.37 5.164 26.066 4.234 24.249 2.377 C 22.431 0.52 21.734 -1.505 21.734 -4.124 C 21.734 -4.124 21.557 -12.45 30.975 -12.45 C 38.344 -12.45 40.585 -7.276 40.585 -4.719 C 40.585 -2.689 39.656 -1.968 37.541 -1.968 L 28.123 -1.968 C 28.123 -1.968 27.762 0.187 32.089 0.187 L 37.462 0.187 C 39.377 0.187 40.574 2.26 39.616 3.919 C 39.173 4.688 38.351 5.163 37.462 5.163 L 30.827 5.163 L 30.815 5.164 Z M 28.186 -5.896 L 34.37 -5.896 C 34.37 -7.928 31.294 -7.928 31.294 -7.928 C 31.294 -7.928 28.186 -7.928 28.186 -5.896 Z M -78.031 -13.213 C -79.955 -12.884 -82.742 -13.227 -84.221 -13.844 C -81.15 -14.096 -79.071 -15.491 -78.271 -17.386 C -79.378 -16.705 -82.814 -15.944 -84.707 -16.67 L -85.01 -17.925 C -86.453 -23.237 -91.405 -27.517 -96.588 -26.999 L -95.317 -27.472 C -94.749 -27.675 -91.4 -28.222 -91.928 -29.401 C -92.373 -30.443 -96.466 -28.618 -97.236 -28.378 C -96.219 -28.739 -94.535 -29.417 -94.356 -30.587 C -95.948 -30.351 -97.434 -29.646 -98.626 -28.564 C -98.197 -29.024 -97.874 -29.583 -97.805 -30.187 C -101.963 -27.527 -104.391 -22.171 -106.355 -16.972 C -107.898 -18.468 -109.268 -19.649 -110.494 -20.307 C -113.934 -22.151 -118.066 -24.079 -124.508 -26.48 C -124.688 -24.34 -123.451 -21.495 -119.82 -19.604 C -120.603 -19.712 -122.034 -19.474 -123.177 -19.202 C -122.712 -16.75 -121.189 -14.731 -117.062 -13.757 C -118.948 -13.631 -119.923 -13.216 -120.805 -12.279 C -119.947 -10.571 -117.848 -8.565 -114.08 -8.979 C -118.274 -7.169 -115.793 -3.819 -112.378 -4.319 C -118.196 1.699 -127.371 1.27 -132.639 -3.778 C -118.887 14.985 -88.986 7.317 -84.532 -10.755 C -81.19 -10.728 -79.232 -11.913 -78.015 -13.218 L -78.031 -13.213 Z" style="fill: rgb(116, 128, 148);"/>
</svg>