<svg id="Layer_1" data-name="Layer 1" xmlns="http://www.w3.org/2000/svg" viewBox="0 0 665.1 167.62"><defs><style>.cls-1{fill:#0e2033;}.cls-2{fill:#fff;stroke:#000;stroke-miterlimit:10;}.cls-3{fill:#748094;}</style></defs><title>company-chownow</title><path class="cls-1" d="M345.6,294.8c16.9,0,28.9-9,32.5-23.5l-12.6-2.7c-2.4,9.4-9.4,15.1-20,15.1-13.9,0-24.2-9.6-24.2-27.4s10.4-27.5,24.2-27.5c10.4,0,18,6.1,20.2,16.2l12.5-2.7c-2.7-14.9-15.2-24.5-32.6-24.5-19.2,0-36.9,12.8-36.9,38.4C308.6,282,326.1,294.8,345.6,294.8Z" transform="translate(-128 -178.1)"/><path class="cls-1" d="M386.5,293.9h11.7V270.5c0-13.2,5.5-21,14.5-21,7.3,0,11.8,4.4,11.8,11.6V294h11.7V258.5c0-11.8-8.1-19.4-20.3-19.4-7.6,0-14,3.4-17.7,10.2V218.1H386.5Z" transform="translate(-128 -178.1)"/><path class="cls-1" d="M472.4,294.8c16.2,0,27.9-11.7,27.9-27.9S488.6,239,472.4,239s-27.9,11.7-27.9,27.9S456,294.8,472.4,294.8Zm-16.1-28c0-10.4,6.4-17.7,16.1-17.7s16.1,7.3,16.1,17.7-6.6,17.7-16.1,17.7C462.7,284.6,456.3,277.3,456.3,266.8Z" transform="translate(-128 -178.1)"/><path class="cls-1" d="M519.2,293.9H530l11.7-37.7,11.7,37.7h10.8l16.6-54.1H568.9l-10.2,37.8-11.6-37.8H536.3l-11.7,37.8-10.2-37.8H502.5Z" transform="translate(-128 -178.1)"/><path class="cls-1" d="M588.3,293.9h11.9V238.7l34.6,55.2H648V218.7H636V274l-34.5-55.3H588.3Z" transform="translate(-128 -178.1)"/><path class="cls-1" d="M684.8,294.8c16.2,0,27.9-11.7,27.9-27.9S701,239,684.8,239s-27.9,11.7-27.9,27.9S668.5,294.8,684.8,294.8Zm-16.1-28c0-10.4,6.4-17.7,16.1-17.7s16.1,7.3,16.1,17.7-6.5,17.7-16.1,17.7S668.7,277.3,668.7,266.8Z" transform="translate(-128 -178.1)"/><path class="cls-1" d="M731.6,293.9h10.7L754,256.2l11.7,37.7h10.8l16.6-54.1H781.2L771,277.6l-11.6-37.8H748.6L737,277.6l-10.2-37.8H714.9Z" transform="translate(-128 -178.1)"/><circle class="cls-2" cx="72" cy="77.3" r="57"/><path class="cls-3" d="M278.8,254.4c0-42.2-33.8-76.3-75.4-76.3S128,212.3,128,254.4c0,1.1,0,2.1.1,3.2-.1,3.4.3,10.9,3.8,20.9a77.36,77.36,0,0,0,14.6,26c10.3,13,26.2,27,51,39.8a13.13,13.13,0,0,0,11.9,0c24.8-12.9,40.7-26.8,51-39.8a74.09,74.09,0,0,0,14.6-26,62.38,62.38,0,0,0,3.8-20.9v-3.2ZM172.9,220.1a5.9,5.9,0,0,1,8.7.2l15.9,17.5-6.9,7.6L173.1,229a6.14,6.14,0,0,1-.2-8.9Zm73.3,63a1.09,1.09,0,0,1-1.5,0l-14.8-17a2.62,2.62,0,0,0-3.7,3.7l15,16.9a2,2,0,0,1,0,2.7,1.87,1.87,0,0,1-2.6,0l-16.7-15.2a2.62,2.62,0,1,0-3.7,3.7l16.8,15a1.09,1.09,0,0,1,0,1.5,1.13,1.13,0,0,1-1.1.3s-11.6-4.4-17.5-10.4a18.36,18.36,0,0,1-5.5-12.2c0-4.1.5-6.9-3-10.5l-4.4-4.2-4.7,4.4c-3.5,4.5-2.7,7.6-2.7,11.3a19.05,19.05,0,0,1-5.8,12.9c-7.2,7.3-20.5,11.2-26.2,5.4s-1.9-19.3,5.3-26.6a18.72,18.72,0,0,1,12.8-5.9c3.7,0,6.6.7,10.9-2.9l32.5-35.7a5.91,5.91,0,0,1,8.7-.2,6.1,6.1,0,0,1-.2,8.8l-24,22.5,3.9,4.3c3.6,3.5,6.3,2.9,10.3,3a17.64,17.64,0,0,1,12.1,5.6c5.9,6,10.2,17.7,10.2,17.7a1.86,1.86,0,0,1-.4,1.1Z" transform="translate(-128 -178.1)"/></svg>